<svg class="typst-doc" viewBox="0 0 269.6897559055118 276.77207874015744" width="269.6897559055118pt" height="276.77207874015744pt" xmlns="http://www.w3.org/2000/svg" xmlns:xlink="http://www.w3.org/1999/xlink" xmlns:h5="http://www.w3.org/1999/xhtml">
    <path class="typst-shape" fill="#ffffff" fill-rule="nonzero" d="M 0 0 L 0 276.77206 L 269.68976 276.77206 L 269.68976 0 Z "/>
    <g>
        <g transform="translate(0 0)">
            <g class="typst-group">
                <g>
                    <g transform="translate(76.31114173228346 184.0987086614173)">
                        <path class="typst-shape" fill="none" stroke="#000000" stroke-width="1" stroke-linecap="butt" stroke-linejoin="miter" stroke-miterlimit="4" d="M 0 0 C 0 0 180.40396 0 180.40396 0 "/>
                    </g>
                    <g transform="translate(252.04581751181104 181.9727244094488)">
                        <path class="typst-shape" fill="none" stroke="#000000" stroke-width="1" stroke-linecap="butt" stroke-linejoin="miter" stroke-miterlimit="4" d="M 0 4.2519684 C 0 4.2519684 5.6692915 2.1259842 5.6692915 2.1259842 C 5.6692915 2.1259842 0 0 0 0 "/>
                    </g>
                    <g transform="translate(90.48437007874016 17.867970319305307)">
                        <path class="typst-shape" fill="none" stroke="#000000" stroke-width="1" stroke-linecap="butt" stroke-linejoin="miter" stroke-miterlimit="4" d="M 0 180.40396 C 0 180.40396 0 0 0 0 "/>
                    </g>
                    <g transform="translate(88.35838582677165 16.867969889763746)">
                        <path class="typst-shape" fill="none" stroke="#000000" stroke-width="1" stroke-linecap="butt" stroke-linejoin="miter" stroke-miterlimit="4" d="M 4.2519684 5.6692915 C 4.2519684 5.6692915 2.1259842 0 2.1259842 0 C 2.1259842 0 0 5.6692915 0 5.6692915 "/>
                    </g>
                    <g transform="translate(7.3690009076841605 177.01209448818895)">
                        <path class="typst-shape" fill="none" stroke="#000000" stroke-width="1" stroke-linecap="butt" stroke-linejoin="miter" stroke-miterlimit="4" d="M 90.20198 0 C 90.20198 0 0 90.20198 0 90.20198 "/>
                    </g>
                    <g transform="translate(6.86900069291338 264.8794323779527)">
                        <path class="typst-shape" fill="none" stroke="#000000" stroke-width="1" stroke-linecap="butt" stroke-linejoin="miter" stroke-miterlimit="4" d="M 0.70866144 0 C 0.70866144 0 0 2.8346457 0 2.8346457 C 0 2.8346457 4.96063 0 4.96063 0 "/>
                    </g>
                    <g transform="translate(260.5631102047244 180.28170859842515)">
                        <g class="typst-group">
                            <g>
                                <g transform="translate(0 0)">
                                    <g class="typst-group">
                                        <g>
                                            <g transform="translate(2.8346456692913384 7.513000000000001)">
                                                <g class="typst-text" transform="scale(1, -1)">
                                                    <use xlink:href="#gB99E6505A3DFE2A4B822B979CB694B75" x="0" fill="#000000" fill-rule="nonzero"/>
                                                </g>
                                            </g>
                                        </g>
                                    </g>
                                </g>
                            </g>
                        </g>
                    </g>
                    <g transform="translate(87.6353700472441 -0.00000009448820037505357)">
                        <g class="typst-group">
                            <g>
                                <g transform="translate(0 0)">
                                    <g class="typst-group">
                                        <g>
                                            <g transform="translate(0 7.513000000000001)">
                                                <g class="typst-text" transform="scale(1, -1)">
                                                    <use xlink:href="#g52D975148C03FBC04B80738A81DE4EF0" x="0" fill="#000000" fill-rule="nonzero"/>
                                                </g>
                                            </g>
                                        </g>
                                    </g>
                                </g>
                            </g>
                        </g>
                    </g>
                    <g transform="translate(0.000000000000005818617678665387 269.1380786771653)">
                        <g class="typst-group">
                            <g>
                                <g transform="translate(0 0)">
                                    <g class="typst-group">
                                        <g>
                                            <g transform="translate(0 7.513000000000001)">
                                                <g class="typst-text" transform="scale(1, -1)">
                                                    <use xlink:href="#g5EFA46111AD3DB87B68308D6BBCC971B" x="0" fill="#000000" fill-rule="nonzero"/>
                                                </g>
                                            </g>
                                        </g>
                                    </g>
                                </g>
                            </g>
                        </g>
                    </g>
                    <g transform="translate(175.52374015748032 84.88611023622045)">
                        <path class="typst-shape" fill="none" stroke="#aaaaaa" stroke-width="1" stroke-linecap="butt" stroke-linejoin="miter" stroke-miterlimit="4" stroke-dashoffset="0" stroke-dasharray="3 3" d="M 0 170.07874 C 0 170.07874 0 0 0 0 "/>
                    </g>
                    <g transform="translate(19.618228346456693 84.88611023622045)">
                        <path class="typst-shape" fill="none" stroke="#aaaaaa" stroke-width="1" stroke-linecap="butt" stroke-linejoin="miter" stroke-miterlimit="4" stroke-dashoffset="0" stroke-dasharray="3 3" d="M 0 0 C 0 0 155.90552 0 155.90552 0 "/>
                    </g>
                    <g transform="translate(19.618228346456693 254.96485039370077)">
                        <path class="typst-shape" fill="none" stroke="#aaaaaa" stroke-width="1" stroke-linecap="butt" stroke-linejoin="miter" stroke-miterlimit="4" stroke-dashoffset="0" stroke-dasharray="3 3" d="M 0 0 C 0 0 155.90552 0 155.90552 0 "/>
                    </g>
                    <g transform="translate(19.618228346456693 14.019968503936985)">
                        <path class="typst-shape" fill="none" stroke="#aaaaaa" stroke-width="1" stroke-linecap="butt" stroke-linejoin="miter" stroke-miterlimit="4" stroke-dashoffset="0" stroke-dasharray="3 3" d="M 0 70.86614 C 0 70.86614 70.86614 0 70.86614 0 "/>
                    </g>
                    <g transform="translate(19.618228346456693 84.88611023622045)">
                        <path class="typst-shape" fill="none" stroke="#aaaaaa" stroke-width="1" stroke-linecap="butt" stroke-linejoin="miter" stroke-miterlimit="4" stroke-dashoffset="0" stroke-dasharray="3 3" d="M 0 170.07874 C 0 170.07874 0 0 0 0 "/>
                    </g>
                    <g transform="translate(175.52374015748032 14.019968503936985)">
                        <path class="typst-shape" fill="none" stroke="#aaaaaa" stroke-width="1" stroke-linecap="butt" stroke-linejoin="miter" stroke-miterlimit="4" stroke-dashoffset="0" stroke-dasharray="3 3" d="M 70.86614 0 C 70.86614 0 0 70.86614 0 70.86614 "/>
                    </g>
                    <g transform="translate(246.38988188976379 14.019968503936985)">
                        <path class="typst-shape" fill="none" stroke="#aaaaaa" stroke-width="1" stroke-linecap="butt" stroke-linejoin="miter" stroke-miterlimit="4" stroke-dashoffset="0" stroke-dasharray="3 3" d="M 0 170.07874 C 0 170.07874 0 0 0 0 "/>
                    </g>
                    <g transform="translate(90.48437007874016 14.019968503936985)">
                        <path class="typst-shape" fill="none" stroke="#aaaaaa" stroke-width="1" stroke-linecap="butt" stroke-linejoin="miter" stroke-miterlimit="4" stroke-dashoffset="0" stroke-dasharray="3 3" d="M 155.90552 0 C 155.90552 0 0 0 0 0 "/>
                    </g>
                    <g transform="translate(175.52374015748032 184.0987086614173)">
                        <path class="typst-shape" fill="none" stroke="#aaaaaa" stroke-width="1" stroke-linecap="butt" stroke-linejoin="miter" stroke-miterlimit="4" stroke-dashoffset="0" stroke-dasharray="3 3" d="M 70.86614 0 C 70.86614 0 0 70.86614 0 70.86614 "/>
                    </g>
                    <g transform="translate(90.89783418897638 254.96485034645664)">
                        <g class="typst-group">
                            <g>
                                <g transform="translate(0 0)">
                                    <g class="typst-group">
                                        <g>
                                            <g transform="translate(0 10.347645669291339)">
                                                <g class="typst-text" transform="scale(1, -1)">
                                                    <use xlink:href="#gE0C7C11756AA5F472623D1E07389C024" x="0" fill="#000000" fill-rule="nonzero"/>
                                                </g>
                                            </g>
                                            <g transform="translate(8.349 13.06464566929134)">
                                                <g class="typst-text" transform="scale(1, -1)">
                                                    <use xlink:href="#gEBF6A1C2425550FF570FF2F0969630A" x="0" fill="#000000" fill-rule="nonzero"/>
                                                </g>
                                            </g>
                                        </g>
                                    </g>
                                </g>
                            </g>
                        </g>
                    </g>
                    <g transform="translate(246.38988182677164 93.94433853543305)">
                        <g class="typst-group">
                            <g>
                                <g transform="translate(0 0)">
                                    <g class="typst-group">
                                        <g>
                                            <g transform="translate(2.8346456692913384 7.513000000000001)">
                                                <g class="typst-text" transform="scale(1, -1)">
                                                    <use xlink:href="#gE0C7C11756AA5F472623D1E07389C024" x="0" fill="#000000" fill-rule="nonzero"/>
                                                </g>
                                            </g>
                                            <g transform="translate(11.183645669291339 10.23)">
                                                <g class="typst-text" transform="scale(1, -1)">
                                                    <use xlink:href="#g39F5C37F9251C6BBAC985BF1ABD60801" x="0" fill="#000000" fill-rule="nonzero"/>
                                                </g>
                                            </g>
                                        </g>
                                    </g>
                                </g>
                            </g>
                        </g>
                    </g>
                    <g transform="translate(210.95681096062992 219.53177944881887)">
                        <g class="typst-group">
                            <g>
                                <g transform="translate(0 0)">
                                    <g class="typst-group">
                                        <g>
                                            <g transform="translate(2.8346456692913384 10.347645669291339)">
                                                <g class="typst-text" transform="scale(1, -1)">
                                                    <use xlink:href="#gE0C7C11756AA5F472623D1E07389C024" x="0" fill="#000000" fill-rule="nonzero"/>
                                                </g>
                                            </g>
                                            <g transform="translate(11.183645669291339 13.06464566929134)">
                                                <g class="typst-text" transform="scale(1, -1)">
                                                    <use xlink:href="#g1D0E66E748CCE5054CAEBFD244672E5D" x="0" fill="#000000" fill-rule="nonzero"/>
                                                </g>
                                            </g>
                                        </g>
                                    </g>
                                </g>
                            </g>
                        </g>
                    </g>
                    <g transform="translate(173.5237401574803 82.88611023622045)">
                        <path class="typst-shape" fill="#000000" fill-rule="nonzero" stroke="#000000" stroke-width="1" stroke-linecap="butt" stroke-linejoin="miter" stroke-miterlimit="4" d="M 2 0 C 0.896432 0 0 0.896432 0 2 C 0 2 0 2 0 2 C 0 3.103568 0.896432 4 2 4 C 2 4 2 4 2 4 C 3.103568 4 4 3.103568 4 2 C 4 2 4 2 4 2 C 4 0.896432 3.103568 0 2 0 C 2 0 2 0 2 0 Z "/>
                    </g>
                    <g transform="translate(164.06509442519686 68.86917314960627)">
                        <g class="typst-group">
                            <g>
                                <g transform="translate(0 0)">
                                    <g class="typst-group">
                                        <g>
                                            <g transform="translate(0 7.513000000000001)">
                                                <g class="typst-text" transform="scale(1, -1)">
                                                    <use xlink:href="#gE0C7C11756AA5F472623D1E07389C024" x="0" fill="#000000" fill-rule="nonzero"/>
                                                </g>
                                            </g>
                                        </g>
                                    </g>
                                </g>
                            </g>
                        </g>
                    </g>
                    <g transform="translate(104.65759842519685 184.0987086614173)">
                        <path class="typst-shape" fill="none" stroke="#aaaaaa" stroke-width="1" stroke-linecap="butt" stroke-linejoin="miter" stroke-miterlimit="4" stroke-dashoffset="0" stroke-dasharray="3 3" d="M 0 42.519684 C 0 42.519684 0 0 0 0 "/>
                    </g>
                    <g transform="translate(47.96468503937008 184.0987086614173)">
                        <path class="typst-shape" fill="none" stroke="#aaaaaa" stroke-width="1" stroke-linecap="butt" stroke-linejoin="miter" stroke-miterlimit="4" stroke-dashoffset="0" stroke-dasharray="3 3" d="M 0 0 C 0 0 56.692913 0 56.692913 0 "/>
                    </g>
                    <g transform="translate(47.96468503937008 184.0987086614173)">
                        <path class="typst-shape" fill="none" stroke="#aaaaaa" stroke-width="1" stroke-linecap="butt" stroke-linejoin="miter" stroke-miterlimit="4" stroke-dashoffset="0" stroke-dasharray="3 3" d="M 0 42.519684 C 0 42.519684 0 0 0 0 "/>
                    </g>
                    <g transform="translate(47.96468503937008 141.5790236220472)">
                        <path class="typst-shape" fill="none" stroke="#aaaaaa" stroke-width="1" stroke-linecap="butt" stroke-linejoin="miter" stroke-miterlimit="4" stroke-dashoffset="0" stroke-dasharray="3 3" d="M 0 42.519684 C 0 42.519684 42.519684 0 42.519684 0 "/>
                    </g>
                    <g transform="translate(47.96468503937008 226.61839370078738)">
                        <path class="typst-shape" fill="none" stroke="#aaaaaa" stroke-width="1" stroke-linecap="butt" stroke-linejoin="miter" stroke-miterlimit="4" stroke-dashoffset="0" stroke-dasharray="3 3" d="M 0 0 C 0 0 56.692913 0 56.692913 0 "/>
                    </g>
                    <g transform="translate(104.65759842519685 141.5790236220472)">
                        <path class="typst-shape" fill="none" stroke="#aaaaaa" stroke-width="1" stroke-linecap="butt" stroke-linejoin="miter" stroke-miterlimit="4" stroke-dashoffset="0" stroke-dasharray="3 3" d="M 42.519684 0 C 42.519684 0 0 42.519684 0 42.519684 "/>
                    </g>
                    <g transform="translate(147.17728346456693 141.5790236220472)">
                        <path class="typst-shape" fill="none" stroke="#aaaaaa" stroke-width="1" stroke-linecap="butt" stroke-linejoin="miter" stroke-miterlimit="4" stroke-dashoffset="0" stroke-dasharray="3 3" d="M 0 42.519684 C 0 42.519684 0 0 0 0 "/>
                    </g>
                    <g transform="translate(90.48437007874016 141.5790236220472)">
                        <path class="typst-shape" fill="none" stroke="#aaaaaa" stroke-width="1" stroke-linecap="butt" stroke-linejoin="miter" stroke-miterlimit="4" stroke-dashoffset="0" stroke-dasharray="3 3" d="M 56.692913 0 C 56.692913 0 0 0 0 0 "/>
                    </g>
                    <g transform="translate(104.65759842519685 184.0987086614173)">
                        <path class="typst-shape" fill="none" stroke="#aaaaaa" stroke-width="1" stroke-linecap="butt" stroke-linejoin="miter" stroke-miterlimit="4" stroke-dashoffset="0" stroke-dasharray="3 3" d="M 42.519684 0 C 42.519684 0 0 42.519684 0 42.519684 "/>
                    </g>
                    <g transform="translate(69.68749166929133 226.61839365354325)">
                        <g class="typst-group">
                            <g>
                                <g transform="translate(0 0)">
                                    <g class="typst-group">
                                        <g>
                                            <g transform="translate(0 10.347645669291339)">
                                                <g class="typst-text" transform="scale(1, -1)">
                                                    <use xlink:href="#gC4B8BBC085E56672AB218580D69E17F9" x="0" fill="#000000" fill-rule="nonzero"/>
                                                </g>
                                            </g>
                                            <g transform="translate(8.25 13.06464566929134)">
                                                <g class="typst-text" transform="scale(1, -1)">
                                                    <use xlink:href="#gEBF6A1C2425550FF570FF2F0969630A" x="0" fill="#000000" fill-rule="nonzero"/>
                                                </g>
                                            </g>
                                        </g>
                                    </g>
                                </g>
                            </g>
                        </g>
                    </g>
                    <g transform="translate(147.17728340157478 157.72386609448816)">
                        <g class="typst-group">
                            <g>
                                <g transform="translate(0 0)">
                                    <g class="typst-group">
                                        <g>
                                            <g transform="translate(2.8346456692913384 7.513000000000001)">
                                                <g class="typst-text" transform="scale(1, -1)">
                                                    <use xlink:href="#gC4B8BBC085E56672AB218580D69E17F9" x="0" fill="#000000" fill-rule="nonzero"/>
                                                </g>
                                            </g>
                                            <g transform="translate(11.084645669291339 10.23)">
                                                <g class="typst-text" transform="scale(1, -1)">
                                                    <use xlink:href="#g39F5C37F9251C6BBAC985BF1ABD60801" x="0" fill="#000000" fill-rule="nonzero"/>
                                                </g>
                                            </g>
                                        </g>
                                    </g>
                                </g>
                            </g>
                        </g>
                    </g>
                    <g transform="translate(125.91744088188975 205.35855110236218)">
                        <g class="typst-group">
                            <g>
                                <g transform="translate(0 0)">
                                    <g class="typst-group">
                                        <g>
                                            <g transform="translate(2.8346456692913384 10.347645669291339)">
                                                <g class="typst-text" transform="scale(1, -1)">
                                                    <use xlink:href="#gC4B8BBC085E56672AB218580D69E17F9" x="0" fill="#000000" fill-rule="nonzero"/>
                                                </g>
                                            </g>
                                            <g transform="translate(11.084645669291339 13.06464566929134)">
                                                <g class="typst-text" transform="scale(1, -1)">
                                                    <use xlink:href="#g1D0E66E748CCE5054CAEBFD244672E5D" x="0" fill="#000000" fill-rule="nonzero"/>
                                                </g>
                                            </g>
                                        </g>
                                    </g>
                                </g>
                            </g>
                        </g>
                    </g>
                    <g transform="translate(102.65759842519685 182.0987086614173)">
                        <path class="typst-shape" fill="#000000" fill-rule="nonzero" stroke="#000000" stroke-width="1" stroke-linecap="butt" stroke-linejoin="miter" stroke-miterlimit="4" d="M 2 0 C 0.896432 0 0 0.896432 0 2 C 0 2 0 2 0 2 C 0 3.103568 0.896432 4 2 4 C 2 4 2 4 2 4 C 3.103568 4 4 3.103568 4 2 C 4 2 4 2 4 2 C 4 0.896432 3.103568 0 2 0 C 2 0 2 0 2 0 Z "/>
                    </g>
                    <g transform="translate(99.2422440472441 170.91641724409448)">
                        <g class="typst-group">
                            <g>
                                <g transform="translate(0 0)">
                                    <g class="typst-group">
                                        <g>
                                            <g transform="translate(0 7.513000000000001)">
                                                <g class="typst-text" transform="scale(1, -1)">
                                                    <use xlink:href="#gC4B8BBC085E56672AB218580D69E17F9" x="0" fill="#000000" fill-rule="nonzero"/>
                                                </g>
                                            </g>
                                        </g>
                                    </g>
                                </g>
                            </g>
                        </g>
                    </g>
                    <g transform="translate(104.65759842519685 90.39970740822011)">
                        <path class="typst-shape" fill="none" stroke="#000000" stroke-width="1" stroke-linecap="butt" stroke-linejoin="miter" stroke-miterlimit="4" d="M 0 93.699 C 0 93.699 66.92786 0 66.92786 0 "/>
                    </g>
                    <g transform="translate(170.32110903779528 86.53602595275588)">
                        <path class="typst-shape" fill="#000000" fill-rule="nonzero" stroke="#000000" stroke-width="1" stroke-linecap="butt" stroke-linejoin="miter" stroke-miterlimit="4" d="M 4.02412 0 C 4.02412 0 0 1.9791292 0 1.9791292 C 0 1.9791292 3.3563008 4.5895853 3.3563008 4.5895853 C 3.3563008 4.5895853 3.3563008 4.5895853 3.3563008 4.5895853 C 3.3563008 4.5895853 4.02412 0 4.02412 0 C 4.02412 0 4.02412 0 4.02412 0 Z "/>
                    </g>
                    <g transform="translate(117.54737784251968 121.31011803149605)">
                        <g class="typst-group">
                            <g>
                                <g transform="translate(0 0)">
                                    <g class="typst-group">
                                        <g>
                                            <g transform="translate(2.8346456692913384 2.8346456692913384)">
                                                <g class="typst-group">
                                                    <g>
                                                        <g transform="translate(0 4.587000000000001)">
                                                            <g class="typst-text" transform="scale(1, -1)">
                                                                <use xlink:href="#g5AE83BF79AE9930B5D26E60C29675962" x="0" fill="#000000" fill-rule="nonzero"/>
                                                            </g>
                                                        </g>
                                                        <g transform="translate(2.0228245004344045 4.587000000000001)">
                                                            <g class="typst-text" transform="scale(1, -1)">
                                                                <use xlink:href="#gDFFFD4B8F8D9ADC280D4199A6D1E3294" x="0" fill="#000000" fill-rule="nonzero"/>
                                                            </g>
                                                        </g>
                                                        <g transform="translate(3.2807523892267585 4.587000000000001)">
                                                            <g class="typst-text" transform="scale(1, -1)">
                                                                <use xlink:href="#gDFFFD4B8F8D9ADC280D4199A6D1E3294" x="0" fill="#000000" fill-rule="nonzero"/>
                                                            </g>
                                                        </g>
                                                        <g transform="translate(4.538680278019113 4.587000000000001)">
                                                            <g class="typst-text" transform="scale(1, -1)">
                                                                <use xlink:href="#gDFFFD4B8F8D9ADC280D4199A6D1E3294" x="0" fill="#000000" fill-rule="nonzero"/>
                                                            </g>
                                                        </g>
                                                        <g transform="translate(5.796608166811467 4.587000000000001)">
                                                            <g class="typst-text" transform="scale(1, -1)">
                                                                <use xlink:href="#gDFFFD4B8F8D9ADC280D4199A6D1E3294" x="0" fill="#000000" fill-rule="nonzero"/>
                                                            </g>
                                                        </g>
                                                        <g transform="translate(7.054536055603822 4.587000000000001)">
                                                            <g class="typst-text" transform="scale(1, -1)">
                                                                <use xlink:href="#gDFFFD4B8F8D9ADC280D4199A6D1E3294" x="0" fill="#000000" fill-rule="nonzero"/>
                                                            </g>
                                                        </g>
                                                        <g transform="translate(8.312463944396175 4.587000000000001)">
                                                            <g class="typst-text" transform="scale(1, -1)">
                                                                <use xlink:href="#gDFFFD4B8F8D9ADC280D4199A6D1E3294" x="0" fill="#000000" fill-rule="nonzero"/>
                                                            </g>
                                                        </g>
                                                        <g transform="translate(9.570391833188529 4.587000000000001)">
                                                            <g class="typst-text" transform="scale(1, -1)">
                                                                <use xlink:href="#gDFFFD4B8F8D9ADC280D4199A6D1E3294" x="0" fill="#000000" fill-rule="nonzero"/>
                                                            </g>
                                                        </g>
                                                        <g transform="translate(10.828319721980884 4.587000000000001)">
                                                            <g class="typst-text" transform="scale(1, -1)">
                                                                <use xlink:href="#gDFFFD4B8F8D9ADC280D4199A6D1E3294" x="0" fill="#000000" fill-rule="nonzero"/>
                                                            </g>
                                                        </g>
                                                        <g transform="translate(12.086247610773238 4.587000000000001)">
                                                            <g class="typst-text" transform="scale(1, -1)">
                                                                <use xlink:href="#gDFFFD4B8F8D9ADC280D4199A6D1E3294" x="0" fill="#000000" fill-rule="nonzero"/>
                                                            </g>
                                                        </g>
                                                        <g transform="translate(13.344175499565594 4.587000000000001)">
                                                            <g class="typst-text" transform="scale(1, -1)">
                                                                <use xlink:href="#gDFFFD4B8F8D9ADC280D4199A6D1E3294" x="0" fill="#000000" fill-rule="nonzero"/>
                                                            </g>
                                                        </g>
                                                        <g transform="translate(14.618999999999998 4.587000000000001)">
                                                            <g class="typst-text" transform="scale(1, -1)">
                                                                <use xlink:href="#gA5BB2F241BD0F38DBAEA0FF5F2B83686" x="0" fill="#000000" fill-rule="nonzero"/>
                                                            </g>
                                                        </g>
                                                        <g transform="translate(0 7.513000000000001)">
                                                            <g class="typst-text" transform="scale(1, -1)">
                                                                <use xlink:href="#gC4B8BBC085E56672AB218580D69E17F9" x="0" fill="#000000" fill-rule="nonzero"/>
                                                            </g>
                                                        </g>
                                                        <g transform="translate(8.25 7.513000000000001)">
                                                            <g class="typst-text" transform="scale(1, -1)">
                                                                <use xlink:href="#gE0C7C11756AA5F472623D1E07389C024" x="0" fill="#000000" fill-rule="nonzero"/>
                                                            </g>
                                                        </g>
                                                    </g>
                                                </g>
                                            </g>
                                        </g>
                                    </g>
                                </g>
                            </g>
                        </g>
                    </g>
                </g>
            </g>
        </g>
    </g>
    <defs id="glyph">
        <symbol id="gB99E6505A3DFE2A4B822B979CB694B75" overflow="visible">
            <path d="M 5.797 4.103 C 5.797 4.609 5.302 4.862 4.752 4.862 C 4.279 4.862 3.905 4.609 3.619 4.103 C 3.388 4.609 3.003 4.862 2.442 4.862 C 1.903 4.862 1.4629999 4.609 1.111 4.114 C 0.814 3.685 0.65999997 3.366 0.65999997 3.157 C 0.65999997 3.058 0.715 3.003 0.825 3.003 C 0.924 3.003 0.99 3.058 1.012 3.157 C 1.221 3.795 1.683 4.5429997 2.42 4.5429997 C 2.783 4.5429997 2.9589999 4.312 2.9589999 3.861 C 2.9589999 3.6299999 2.761 2.772 2.376 1.298 C 2.189 0.561 1.859 0.198 1.386 0.198 C 1.232 0.198 1.089 0.231 0.968 0.286 C 1.254 0.396 1.397 0.594 1.397 0.88 C 1.397 1.166 1.254 1.309 0.957 1.309 C 0.594 1.309 0.319 1.001 0.319 0.638 C 0.319 0.132 0.83599997 -0.121 1.375 -0.121 C 1.837 -0.121 2.211 0.132 2.508 0.638 C 2.717 0.132 3.113 -0.121 3.685 -0.121 C 4.213 -0.121 4.653 0.132 5.005 0.627 C 5.302 1.056 5.456 1.375 5.456 1.584 C 5.456 1.683 5.401 1.738 5.291 1.738 C 5.192 1.738 5.137 1.683 5.104 1.584 C 4.917 0.957 4.422 0.198 3.707 0.198 C 3.3439999 0.198 3.157 0.41799998 3.157 0.869 C 3.157 1.012 3.212 1.3199999 3.333 1.8149999 L 3.707 3.3 C 3.916 4.125 4.257 4.5429997 4.741 4.5429997 C 4.895 4.5429997 5.038 4.5099998 5.159 4.455 C 4.862 4.356 4.719 4.158 4.719 3.861 C 4.719 3.575 4.873 3.432 5.17 3.432 C 5.522 3.432 5.797 3.751 5.797 4.103 Z "/>
        </symbol>
        <symbol id="g52D975148C03FBC04B80738A81DE4EF0" overflow="visible">
            <path d="M 1.793 4.862 C 1.298 4.862 0.913 4.587 0.638 4.037 C 0.429 3.608 0.319 3.3109999 0.319 3.146 C 0.319 3.047 0.374 2.992 0.495 2.992 C 0.649 2.992 0.65999997 3.058 0.704 3.223 C 0.957 4.092 1.309 4.532 1.76 4.532 C 1.903 4.532 1.98 4.433 1.98 4.235 C 1.98 4.059 1.925 3.806 1.804 3.487 C 1.386 2.354 1.177 1.595 1.177 1.188 C 1.177 0.352 1.694 -0.143 2.541 -0.143 C 2.904 -0.143 3.245 -0.011 3.553 0.253 C 3.168 -1.199 2.563 -1.925 1.738 -1.925 C 1.364 -1.925 1.111 -1.804 0.979 -1.562 C 1.419 -1.54 1.6389999 -1.331 1.6389999 -0.935 C 1.6389999 -0.65999997 1.496 -0.517 1.199 -0.517 C 0.792 -0.517 0.55 -0.858 0.55 -1.265 C 0.55 -1.87 1.1 -2.2549999 1.738 -2.2549999 C 3.003 -2.2549999 4.037 -1.089 4.312 -0.011 L 5.346 4.147 C 5.379 4.268 5.39 4.356 5.39 4.411 C 5.39 4.631 5.269 4.741 5.038 4.741 C 4.862 4.741 4.719 4.653 4.62 4.488 C 4.554 4.257 4.499 4.059 4.466 3.894 L 3.762 1.067 C 3.652 0.671 3.069 0.176 2.574 0.176 C 2.156 0.176 1.947 0.451 1.947 1.012 C 1.947 1.474 2.134 2.178 2.497 3.124 C 2.6399999 3.509 2.717 3.773 2.717 3.927 C 2.717 4.466 2.332 4.862 1.793 4.862 Z "/>
        </symbol>
        <symbol id="g5EFA46111AD3DB87B68308D6BBCC971B" overflow="visible">
            <path d="M 1.782 1.012 L 1.595 0.99 C 2.123 1.507 2.53 1.881 2.805 2.134 L 3.861 3.113 C 4.114 3.3439999 4.378 3.6299999 4.631 3.949 C 4.972 4.367 5.137 4.62 5.137 4.708 C 5.137 4.807 5.082 4.862 4.972 4.862 C 4.895 4.862 4.829 4.818 4.774 4.719 C 4.499 4.268 4.246 4.048 4.004 4.048 C 3.762 4.048 3.586 4.246 3.487 4.378 C 3.223 4.697 2.9589999 4.862 2.706 4.862 C 2.42 4.862 2.123 4.73 1.8149999 4.444 C 1.507 4.158 1.353 3.872 1.353 3.586 C 1.353 3.476 1.408 3.421 1.529 3.421 C 1.606 3.421 1.6719999 3.476 1.716 3.575 C 1.837 3.894 2.134 4.048 2.585 4.048 C 2.739 4.048 2.9589999 3.993 3.256 3.894 C 3.52 3.795 3.773 3.74 4.004 3.729 C 3.388 3.124 2.915 2.684 2.574 2.387 L 1.595 1.474 C 1.43 1.309 1.221 1.089 0.99 0.814 C 0.649 0.385 0.473 0.132 0.473 0.033 C 0.473 -0.066 0.528 -0.121 0.649 -0.121 C 0.715 -0.121 0.781 -0.066 0.858 0.044 C 1.133 0.473 1.43 0.693 1.738 0.693 C 1.914 0.693 2.112 0.561 2.332 0.286 C 2.552 0.011 2.805 -0.121 3.058 -0.121 C 3.432 -0.121 3.806 0.077 4.202 0.462 C 4.598 0.847 4.796 1.221 4.796 1.584 C 4.796 1.683 4.741 1.738 4.62 1.738 C 4.5429997 1.738 4.4769998 1.683 4.422 1.573 C 4.257 1.1 3.784 0.693 3.168 0.693 C 2.904 0.693 2.046 1.012 1.782 1.012 Z "/>
        </symbol>
        <symbol id="gE0C7C11756AA5F472623D1E07389C024" overflow="visible">
            <path d="M 8.316 5.973 C 8.316 6.974 7.3259997 7.513 6.248 7.513 L 2.596 7.513 C 2.343 7.513 2.233 7.502 2.233 7.249 C 2.233 7.073 2.453 7.084 2.585 7.084 C 2.915 7.073 3.113 7.051 3.168 7.04 C 3.223 7.029 3.245 6.996 3.245 6.941 C 3.245 6.919 3.234 6.853 3.201 6.743 L 1.749 0.902 C 1.694 0.65999997 1.584 0.517 1.419 0.462 C 1.342 0.44 1.144 0.429 0.803 0.429 C 0.572 0.429 0.462 0.341 0.462 0.16499999 C 0.462 0.055 0.572 0 0.803 0 L 4.686 0 C 5.401 0 6.061 0.22 6.6879997 0.649 C 7.381 1.122 7.733 1.705 7.733 2.387 C 7.733 3.256 7.018 3.784 6.237 3.938 C 7.205 4.169 8.316 4.906 8.316 5.973 Z M 6.094 7.084 C 6.853 7.084 7.238 6.732 7.238 6.017 C 7.238 5.456 7.018 4.994 6.5559998 4.62 C 6.094 4.246 5.577 4.07 5.016 4.07 L 3.487 4.07 L 4.147 6.71 C 4.235 7.084 4.235 7.084 4.697 7.084 Z M 6.402 3.289 C 6.5559998 3.036 6.633 2.783 6.633 2.508 C 6.633 1.936 6.413 1.441 5.962 1.034 C 5.511 0.627 5.005 0.429 4.422 0.429 L 2.937 0.429 C 2.827 0.429 2.75 0.429 2.706 0.44 C 2.6399999 0.44 2.6069999 0.462 2.6069999 0.495 C 2.6069999 0.506 2.6069999 0.539 2.618 0.583 C 2.9589999 1.98 3.223 3.036 3.399 3.74 L 5.423 3.74 C 5.896 3.74 6.215 3.586 6.402 3.289 Z "/>
        </symbol>
        <symbol id="gEBF6A1C2425550FF570FF2F0969630A" overflow="visible">
            <path d="M 2.3331 5.1128 C 2.002 4.7894 1.5092 4.6277 0.8393 4.6277 L 0.8393 4.2889 C 1.2936 4.2889 1.6554999 4.3582 1.9327 4.4891 L 1.9327 0.6545 C 1.9327 0.55439997 1.925 0.4928 1.9018999 0.462 C 1.8634 0.3773 1.6324 0.3311 1.2089 0.3311 L 0.8932 0.3311 L 0.8932 0 C 0.8932 0 2.2638 0.0308 2.2638 0.0308 C 2.2638 0.0308 3.6421 0 3.6421 0 L 3.6421 0.3311 L 3.3264 0.3311 C 2.9029 0.3311 2.6719 0.3773 2.6257 0.462 C 2.6103 0.4928 2.6026 0.55439997 2.6026 0.6545 L 2.6026 4.8664 C 2.6026 5.0743 2.5718 5.1128 2.3331 5.1128 Z "/>
        </symbol>
        <symbol id="g39F5C37F9251C6BBAC985BF1ABD60801" overflow="visible">
            <path d="M 0.9163 3.2648 C 1.1626999 3.2648 1.3475 3.4496 1.3475 3.696 C 1.3475 3.9732 1.2012 4.1195 0.9163 4.1272 C 1.0857 4.4891 1.4707 4.7817 1.9712 4.7817 C 2.6488 4.7817 3.0954 4.2735 3.0954 3.5959 C 3.0954 3.2263 2.9645 2.8720999 2.695 2.5256 C 2.5641 2.3485 2.464 2.2253 2.3947 2.156 L 0.5698 0.3465 C 0.4697 0.2541 0.4851 0.231 0.4851 0 L 3.6575 0 L 3.8962 1.4476 L 3.5728 1.4476 C 3.5189 1.0395 3.4573 0.80079997 3.388 0.7469 C 3.3495 0.7238 3.1108 0.7084 2.6565 0.7084 L 1.3475 0.7084 C 1.8634 1.1626999 2.3408 1.5708 2.7951 1.9327 C 3.1416 2.2022 3.388 2.4409 3.542 2.6488 C 3.773 2.9491 3.8885 3.2648 3.8885 3.5959 C 3.8885 4.0733 3.7037 4.4506 3.3264 4.7278 C 2.9953 4.9818997 2.5795 5.1128 2.0867 5.1128 C 1.6632 5.1128 1.3013 4.9896 0.9856 4.7432 C 0.6545 4.4737 0.4851 4.1349 0.4851 3.7191 C 0.4851 3.4573 0.6776 3.2648 0.9163 3.2648 Z "/>
        </symbol>
        <symbol id="g1D0E66E748CCE5054CAEBFD244672E5D" overflow="visible">
            <path d="M 2.7181 2.7181 C 3.234 2.9259999 3.7268 3.3803 3.7268 4.0348 C 3.7268 4.3813 3.542 4.6585 3.1801 4.8587 C 2.8798 5.0281 2.541 5.1128 2.1637 5.1128 C 1.7864 5.1128 1.4553 5.0358 1.1704 4.8741 C 0.8239 4.6816 0.6468 4.4121 0.6468 4.0656 C 0.6468 3.773 0.7931 3.6267 1.078 3.6267 C 1.3167 3.6267 1.4938 3.8115 1.4938 4.0502 C 1.4938 4.2889 1.3706 4.4275 1.1319 4.466 C 1.3552 4.7047 1.6863 4.8279 2.1406 4.8279 C 2.6411 4.8279 2.9259999 4.5276 2.9259999 4.0348 C 2.9259999 3.6729 2.8259 3.3803 2.6334 3.1493 C 2.4178 2.8952 2.2638 2.8567 1.8172 2.8259 C 1.6093 2.8105 1.4707 2.8336 1.4707 2.6796 C 1.4707 2.5872 1.5477 2.541 1.694 2.541 L 2.1021 2.541 C 2.7642999 2.541 3.0877 2.0405 3.0877 1.3475 C 3.0877 0.6699 2.7797 0.154 2.1329 0.154 C 1.5708 0.154 1.1626999 0.308 0.9086 0.6237 C 1.1781 0.6545 1.3167 0.8085 1.3167 1.078 C 1.3167 1.3321 1.1242 1.5246 0.8701 1.5246 C 0.5698 1.5246 0.4158 1.3706 0.4158 1.0549 C 0.4158 0.6622 0.616 0.3465 1.0087 0.1232 C 1.3398 -0.0616 1.7171 -0.154 2.1483 -0.154 C 2.618 -0.154 3.0261 -0.0231 3.3803 0.2387 C 3.7653 0.5236 3.9578 0.8932 3.9578 1.3475 C 3.9578 2.0636 3.3341 2.5564 2.7181 2.7181 Z "/>
        </symbol>
        <symbol id="gC4B8BBC085E56672AB218580D69E17F9" overflow="visible">
            <path d="M 2.596 0 C 2.761 0 2.838 0.088 2.838 0.253 C 2.838 0.352 2.772 0.41799998 2.629 0.429 C 2.31 0.44 2.156 0.55 2.156 0.759 C 2.156 0.858 2.2549999 1.078 2.464 1.408 C 2.761 1.903 2.97 2.266 3.113 2.508 L 5.786 2.508 C 5.786 2.431 5.797 2.277 5.83 2.035 C 5.907 1.232 5.9509997 0.792 5.9509997 0.737 C 5.9509997 0.528 5.709 0.429 5.2139997 0.429 C 5.005 0.429 4.906 0.341 4.906 0.16499999 C 4.906 0.055 4.972 0 5.104 0 C 5.368 0 6.204 0.033 6.468 0.033 C 6.6879997 0.033 7.469 0 7.689 0 C 7.854 0 7.9309998 0.088 7.9309998 0.264 C 7.9309998 0.374 7.832 0.429 7.634 0.429 C 7.3259997 0.429 7.139 0.451 7.084 0.484 C 7.029 0.517 6.985 0.616 6.974 0.781 L 6.314 7.579 C 6.281 7.788 6.292 7.876 6.061 7.876 C 5.929 7.876 5.819 7.81 5.742 7.667 L 1.958 1.3199999 C 1.628 0.77 1.188 0.473 0.649 0.429 C 0.473 0.41799998 0.385 0.32999998 0.385 0.16499999 C 0.385 0.055 0.451 0 0.572 0 C 0.748 0 1.331 0.033 1.507 0.033 C 1.705 0.033 2.387 0 2.596 0 Z M 5.412 6.347 L 5.742 2.937 L 3.377 2.937 Z "/>
        </symbol>
        <symbol id="g5AE83BF79AE9930B5D26E60C29675962" overflow="visible">
            <path d="M 0.198 6.611 L 2.2549999 6.611 L 2.2549999 6.941 L 0.198 6.941 C 0.066 6.941 0 6.886 0 6.776 C 0 6.666 0.066 6.611 0.198 6.611 Z "/>
        </symbol>
        <symbol id="gDFFFD4B8F8D9ADC280D4199A6D1E3294" overflow="visible">
            <path d="M 0 6.611 L 1.507 6.611 L 1.507 6.941 L 0 6.941 Z "/>
        </symbol>
        <symbol id="gA5BB2F241BD0F38DBAEA0FF5F2B83686" overflow="visible">
            <path d="M 2.123 6.5889997 C 2.211 6.6219997 2.2549999 6.677 2.2549999 6.776 C 2.2549999 6.875 2.211 6.93 2.123 6.963 C 1.738 7.084 1.452 7.337 1.287 7.7 C 1.254 7.777 1.188 7.821 1.1 7.821 C 0.968 7.821 0.902 7.755 0.902 7.623 C 0.902 7.612 0.913 7.579 0.924 7.535 C 1.012 7.3259997 1.144 7.139 1.331 6.974 L 0 6.974 L 0 6.578 L 1.331 6.578 C 1.144 6.413 1.012 6.226 0.924 6.017 C 0.913 5.973 0.902 5.94 0.902 5.929 C 0.902 5.797 0.968 5.731 1.1 5.731 C 1.188 5.731 1.254 5.775 1.287 5.8519998 C 1.452 6.215 1.738 6.468 2.123 6.5889997 Z "/>
        </symbol>
    </defs>
</svg>
